<?xml version="1.0" encoding="UTF-8" standalone="no"?>
<!-- Created with Inkscape (http://www.inkscape.org/) -->

<svg
   width="512"
   height="512"
   viewBox="0 0 135.46666 135.46668"
   version="1.1"
   id="svg1"
   xml:space="preserve"
   xmlns:xlink="http://www.w3.org/1999/xlink"
   xmlns="http://www.w3.org/2000/svg"
   xmlns:svg="http://www.w3.org/2000/svg"
   xmlns:rdf="http://www.w3.org/1999/02/22-rdf-syntax-ns#"
   xmlns:cc="http://creativecommons.org/ns#"
   xmlns:dc="http://purl.org/dc/elements/1.1/"><title
     id="title83">Flora Editor Reconstruction (Icon)</title><defs
     id="defs1"><linearGradient
       id="linearGradient249"><stop
         style="stop-color:#fcfcfc;stop-opacity:1;"
         offset="0.44999999"
         id="stop248" /><stop
         style="stop-color:#cccccc;stop-opacity:1;"
         offset="0.80000001"
         id="stop249" /></linearGradient><linearGradient
       id="linearGradient247"><stop
         style="stop-color:#008502;stop-opacity:0;"
         offset="0"
         id="stop246" /><stop
         style="stop-color:#000000;stop-opacity:0.25;"
         offset="0.86130136"
         id="stop247" /></linearGradient><linearGradient
       id="linearGradient99"><stop
         style="stop-color:#003001;stop-opacity:1;"
         offset="0"
         id="stop98" /><stop
         style="stop-color:#00c003;stop-opacity:1;"
         offset="0.65239722"
         id="stop99" /></linearGradient><linearGradient
       xlink:href="#linearGradient249"
       id="linearGradient77"
       x1="23.785145"
       y1="23.789841"
       x2="65.722633"
       y2="139.01215"
       gradientUnits="userSpaceOnUse" /><linearGradient
       xlink:href="#linearGradient99"
       id="linearGradient97"
       x1="43.088333"
       y1="152.81177"
       x2="43.088333"
       y2="1.9826488"
       gradientUnits="userSpaceOnUse" /><filter
       style="color-interpolation-filters:sRGB"
       id="filter146"
       x="-0.041826239"
       y="-0.04580469"
       width="1.079674"
       height="1.0836525"><feFlood
         result="flood"
         in="SourceGraphic"
         flood-opacity="0.600000"
         flood-color="rgb(0,0,0)"
         id="feFlood145" /><feGaussianBlur
         result="blur"
         in="SourceGraphic"
         stdDeviation="1.000000"
         id="feGaussianBlur145" /><feOffset
         result="offset"
         in="blur"
         dx="-0.500000"
         dy="-1.000000"
         id="feOffset145" /><feComposite
         result="comp1"
         operator="out"
         in="flood"
         in2="offset"
         id="feComposite145" /><feComposite
         result="comp2"
         operator="atop"
         in="comp1"
         in2="SourceGraphic"
         id="feComposite146" /></filter><filter
       style="color-interpolation-filters:sRGB"
       id="filter157"
       x="-0.095482796"
       y="-0.095482799"
       width="1.1909656"
       height="1.1909656"><feFlood
         result="flood"
         in="SourceGraphic"
         flood-opacity="0.400000"
         flood-color="rgb(0,0,0)"
         id="feFlood156" /><feGaussianBlur
         result="blur"
         in="SourceGraphic"
         stdDeviation="5.000000"
         id="feGaussianBlur156" /><feOffset
         result="offset"
         in="blur"
         dx="0.000000"
         dy="0.000000"
         id="feOffset156" /><feComposite
         result="comp1"
         operator="out"
         in="flood"
         in2="offset"
         id="feComposite156" /><feComposite
         result="comp2"
         operator="atop"
         in="comp1"
         in2="SourceGraphic"
         id="feComposite157" /></filter><linearGradient
       xlink:href="#linearGradient247"
       id="linearGradient246"
       gradientUnits="userSpaceOnUse"
       gradientTransform="matrix(0.7710221,0,0,0.78335713,32.055303,56.343615)"
       x1="-32.326225"
       y1="77.397209"
       x2="118.50289"
       y2="77.397209" /></defs><g
     id="FloraEditorReconstruction"
     style="display:inline;fill:#1a1a1a"
     transform="translate(24.645001,-12.781691)"><g
       id="Icon"
       style="display:inline;fill:#1a1a1a"
       transform="matrix(1.1429801,0,0,1.1429801,-9.3279214,-11.532612)"><path
         id="CircleGradient"
         style="display:inline;opacity:1;fill:url(#linearGradient97);stroke-width:4.7132;filter:url(#filter157)"
         transform="matrix(0.7710221,0,0,0.78335713,12.637228,17.394022)"
         d="M 105.92688,80.647316 A 62.838543,62.838543 0 0 1 43.088333,143.48586 62.838543,62.838543 0 0 1 -19.75021,80.647316 62.838543,62.838543 0 0 1 43.088333,17.808773 62.838543,62.838543 0 0 1 105.92688,80.647316 Z" /><path
         id="CircleShadow"
         style="display:inline;fill:url(#linearGradient246);stroke-width:3.66293"
         d="m 65.277135,70.294436 a 48.449905,49.225021 0 0 0 -48.449756,49.224904 48.449905,49.225021 0 0 0 0.0279,0.43667 48.449905,49.225021 0 0 0 29.003915,9.83868 48.449905,49.225021 0 0 0 48.449761,-49.224913 48.449905,49.225021 0 0 0 -0.0284,-0.43666 48.449905,49.225021 0 0 0 -29.0034,-9.838681 z" /><path
         id="CircleStroke"
         style="display:inline;opacity:1;fill:none;stroke:#ffffff;stroke-width:4.7132;filter:url(#filter146)"
         transform="matrix(0.7710221,0,0,0.78335713,12.637228,17.394022)"
         d="M 105.92688,80.647316 A 62.838543,62.838543 0 0 1 43.088333,143.48586 62.838543,62.838543 0 0 1 -19.75021,80.647316 62.838543,62.838543 0 0 1 43.088333,17.808773 62.838543,62.838543 0 0 1 105.92688,80.647316 Z" /></g><g
       id="Leaf"
       transform="matrix(0.57376598,0,0,0.57376576,17.410074,32.37515)"
       style="display:inline;fill:#1a1a1a"><path
         id="LeafPath"
         style="display:inline;fill:url(#linearGradient77);fill-opacity:1;stroke:#018403;stroke-width:8.96015;stroke-dasharray:none;stroke-opacity:1;paint-order:markers stroke fill"
         d="M 44.753888,15.452504 29.084467,50.138211 5.0478794,66.111892 17.674694,88.627175 -16.554621,80.260009 -2.1022444,110.38181 c 0,0 1.89734246,3.34687 0.6085211,8.82356 -1.435155,6.09852 -5.9330815,12.62681 -5.9330815,12.62681 l 26.9270618,5.4767 22.058895,-3.65114 v 13.69174 h 3.194736 3.194735 v -13.69174 l 22.058893,3.65114 26.927062,-5.4767 c 0,0 -4.497927,-6.52829 -5.933081,-12.62681 -1.288822,-5.47669 0.608521,-8.82356 0.608521,-8.82356 L 106.0624,80.260009 71.83308,88.627175 84.459893,66.111892 60.423308,50.138211 Z" /></g></g><metadata
     id="metadata83"><rdf:RDF><cc:Work
         rdf:about=""><dc:title>Flora Editor Reconstruction (Icon)</dc:title><dc:creator><cc:Agent><dc:title>0KepOnline</dc:title></cc:Agent></dc:creator></cc:Work></rdf:RDF></metadata></svg>
