<?xml version="1.0" encoding="UTF-8" standalone="no"?>
<!-- Created with Inkscape (http://www.inkscape.org/) -->

<svg
   width="1750"
   height="512"
   viewBox="0 0 463.02081 135.46668"
   version="1.1"
   id="svg1"
   xml:space="preserve"
   xmlns:xlink="http://www.w3.org/1999/xlink"
   xmlns="http://www.w3.org/2000/svg"
   xmlns:svg="http://www.w3.org/2000/svg"
   xmlns:rdf="http://www.w3.org/1999/02/22-rdf-syntax-ns#"
   xmlns:cc="http://creativecommons.org/ns#"
   xmlns:dc="http://purl.org/dc/elements/1.1/"><title
     id="title83">Flora Editor Reconstruction</title><defs
     id="defs1"><linearGradient
       id="linearGradient249"><stop
         style="stop-color:#fcfcfc;stop-opacity:1;"
         offset="0.44999999"
         id="stop248" /><stop
         style="stop-color:#cccccc;stop-opacity:1;"
         offset="0.80000001"
         id="stop249" /></linearGradient><linearGradient
       id="linearGradient247"><stop
         style="stop-color:#008502;stop-opacity:0;"
         offset="0"
         id="stop246" /><stop
         style="stop-color:#000000;stop-opacity:0.25;"
         offset="0.86130136"
         id="stop247" /></linearGradient><linearGradient
       id="linearGradient99"><stop
         style="stop-color:#003001;stop-opacity:1;"
         offset="0"
         id="stop98" /><stop
         style="stop-color:#00c003;stop-opacity:1;"
         offset="0.65239722"
         id="stop99" /></linearGradient><linearGradient
       id="linearGradient68"><stop
         style="stop-color:#000030;stop-opacity:1;"
         offset="0.33390412"
         id="stop67" /><stop
         style="stop-color:#00c003;stop-opacity:1;"
         offset="0.51883554"
         id="stop68" /></linearGradient><linearGradient
       id="linearGradient66"><stop
         style="stop-color:#000030;stop-opacity:1;"
         offset="0.33390412"
         id="stop65" /><stop
         style="stop-color:#00c203;stop-opacity:1;"
         offset="0.51883554"
         id="stop66" /></linearGradient><linearGradient
       id="linearGradient18"><stop
         style="stop-color:#f5f5f5;stop-opacity:1;"
         offset="0.44999999"
         id="stop17" /><stop
         style="stop-color:#d1d1d1;stop-opacity:1;"
         offset="0.55000001"
         id="stop18" /></linearGradient><linearGradient
       xlink:href="#linearGradient249"
       id="linearGradient77"
       x1="23.785145"
       y1="23.789841"
       x2="65.722633"
       y2="139.01215"
       gradientUnits="userSpaceOnUse" /><filter
       style="color-interpolation-filters:sRGB"
       id="filter91"
       x="-0.015928971"
       y="-0.11147948"
       width="1.0318579"
       height="1.222959"><feFlood
         result="flood"
         in="SourceGraphic"
         flood-opacity="0.400000"
         flood-color="rgb(0,0,0)"
         id="feFlood90" /><feGaussianBlur
         result="blur"
         in="SourceGraphic"
         stdDeviation="1.500000"
         id="feGaussianBlur90" /><feOffset
         result="offset"
         in="blur"
         dx="0.000000"
         dy="0.000000"
         id="feOffset90" /><feComposite
         result="comp1"
         operator="out"
         in="flood"
         in2="offset"
         id="feComposite90" /><feComposite
         result="comp2"
         operator="atop"
         in="comp1"
         in2="SourceGraphic"
         id="feComposite91" /></filter><filter
       style="color-interpolation-filters:sRGB"
       id="filter95"
       x="-0.012929342"
       y="-0.11070748"
       width="1.0258587"
       height="1.221415"><feFlood
         result="flood"
         in="SourceGraphic"
         flood-opacity="0.400000"
         flood-color="rgb(0,0,0)"
         id="feFlood94" /><feGaussianBlur
         result="blur"
         in="SourceGraphic"
         stdDeviation="1.500000"
         id="feGaussianBlur94" /><feOffset
         result="offset"
         in="blur"
         dx="0.000000"
         dy="0.000000"
         id="feOffset94" /><feComposite
         result="comp1"
         operator="out"
         in="flood"
         in2="offset"
         id="feComposite94" /><feComposite
         result="comp2"
         operator="atop"
         in="comp1"
         in2="SourceGraphic"
         id="feComposite95" /></filter><linearGradient
       xlink:href="#linearGradient99"
       id="linearGradient97"
       x1="43.088333"
       y1="152.81177"
       x2="43.088333"
       y2="1.9826488"
       gradientUnits="userSpaceOnUse" /><filter
       style="color-interpolation-filters:sRGB"
       id="filter146"
       x="-0.041826239"
       y="-0.04580469"
       width="1.079674"
       height="1.0836525"><feFlood
         result="flood"
         in="SourceGraphic"
         flood-opacity="0.600000"
         flood-color="rgb(0,0,0)"
         id="feFlood145" /><feGaussianBlur
         result="blur"
         in="SourceGraphic"
         stdDeviation="1.000000"
         id="feGaussianBlur145" /><feOffset
         result="offset"
         in="blur"
         dx="-0.500000"
         dy="-1.000000"
         id="feOffset145" /><feComposite
         result="comp1"
         operator="out"
         in="flood"
         in2="offset"
         id="feComposite145" /><feComposite
         result="comp2"
         operator="atop"
         in="comp1"
         in2="SourceGraphic"
         id="feComposite146" /></filter><filter
       style="color-interpolation-filters:sRGB"
       id="filter157"
       x="-0.095482796"
       y="-0.095482799"
       width="1.1909656"
       height="1.1909656"><feFlood
         result="flood"
         in="SourceGraphic"
         flood-opacity="0.400000"
         flood-color="rgb(0,0,0)"
         id="feFlood156" /><feGaussianBlur
         result="blur"
         in="SourceGraphic"
         stdDeviation="5.000000"
         id="feGaussianBlur156" /><feOffset
         result="offset"
         in="blur"
         dx="0.000000"
         dy="0.000000"
         id="feOffset156" /><feComposite
         result="comp1"
         operator="out"
         in="flood"
         in2="offset"
         id="feComposite156" /><feComposite
         result="comp2"
         operator="atop"
         in="comp1"
         in2="SourceGraphic"
         id="feComposite157" /></filter><linearGradient
       xlink:href="#linearGradient247"
       id="linearGradient246"
       gradientUnits="userSpaceOnUse"
       gradientTransform="matrix(0.7710221,0,0,0.78335713,32.055303,56.343615)"
       x1="-32.326225"
       y1="77.397209"
       x2="118.50289"
       y2="77.397209" /><linearGradient
       xlink:href="#linearGradient18"
       id="linearGradient11"
       gradientUnits="userSpaceOnUse"
       gradientTransform="matrix(0.4702647,0,0,0.4702647,101.73353,148.12775)"
       x1="299.8815"
       y1="-430.51132"
       x2="299.8815"
       y2="88.343842" /><linearGradient
       xlink:href="#linearGradient66"
       id="linearGradient12"
       gradientUnits="userSpaceOnUse"
       gradientTransform="matrix(0.4702647,0,0,0.4702647,102.65619,115.53522)"
       x1="305.57855"
       y1="165.69334"
       x2="305.57855"
       y2="-370.62247" /><linearGradient
       xlink:href="#linearGradient18"
       id="linearGradient13"
       gradientUnits="userSpaceOnUse"
       gradientTransform="matrix(0.4702647,0,0,0.4702647,101.73353,185.9729)"
       x1="299.8815"
       y1="-430.51132"
       x2="299.8815"
       y2="88.343842" /><linearGradient
       xlink:href="#linearGradient68"
       id="linearGradient14"
       gradientUnits="userSpaceOnUse"
       gradientTransform="matrix(0.4702647,0,0,0.4702647,102.65619,153.38036)"
       x1="305.57855"
       y1="165.69334"
       x2="305.57855"
       y2="-370.62247" /></defs><g
     id="FloraEditorReconstruction"
     style="display:inline;fill:#1a1a1a"
     transform="translate(24.645001,-12.781691)"><g
       id="Icon"
       style="display:inline;fill:#1a1a1a"
       transform="translate(9.2634533)"><path
         id="CircleGradient"
         style="display:inline;opacity:1;fill:url(#linearGradient97);stroke-width:4.7132;filter:url(#filter157)"
         transform="matrix(0.7710221,0,0,0.78335713,12.637228,17.394022)"
         d="M 105.92688,80.647316 A 62.838543,62.838543 0 0 1 43.088333,143.48586 62.838543,62.838543 0 0 1 -19.75021,80.647316 62.838543,62.838543 0 0 1 43.088333,17.808773 62.838543,62.838543 0 0 1 105.92688,80.647316 Z" /><path
         id="CircleShadow"
         style="display:inline;fill:url(#linearGradient246);stroke-width:3.66293"
         d="m 65.277135,70.294436 a 48.449905,49.225021 0 0 0 -48.449756,49.224904 48.449905,49.225021 0 0 0 0.0279,0.43667 48.449905,49.225021 0 0 0 29.003915,9.83868 48.449905,49.225021 0 0 0 48.449761,-49.224913 48.449905,49.225021 0 0 0 -0.0284,-0.43666 48.449905,49.225021 0 0 0 -29.0034,-9.838681 z" /><path
         id="CircleStroke"
         style="display:inline;opacity:1;fill:none;stroke:#ffffff;stroke-width:4.7132;filter:url(#filter146)"
         transform="matrix(0.7710221,0,0,0.78335713,12.637228,17.394022)"
         d="M 105.92688,80.647316 A 62.838543,62.838543 0 0 1 43.088333,143.48586 62.838543,62.838543 0 0 1 -19.75021,80.647316 62.838543,62.838543 0 0 1 43.088333,17.808773 62.838543,62.838543 0 0 1 105.92688,80.647316 Z" /></g><g
       id="Leaf"
       transform="matrix(0.50199122,0,0,0.50199103,32.657346,38.415159)"
       style="display:inline;fill:#1a1a1a"><path
         id="LeafPath"
         style="display:inline;fill:url(#linearGradient77);fill-opacity:1;stroke:#018403;stroke-width:8.96015;stroke-dasharray:none;stroke-opacity:1;paint-order:markers stroke fill"
         d="M 44.753888,15.452504 29.084467,50.138211 5.0478794,66.111892 17.674694,88.627175 -16.554621,80.260009 -2.1022444,110.38181 c 0,0 1.89734246,3.34687 0.6085211,8.82356 -1.435155,6.09852 -5.9330815,12.62681 -5.9330815,12.62681 l 26.9270618,5.4767 22.058895,-3.65114 v 13.69174 h 3.194736 3.194735 v -13.69174 l 22.058893,3.65114 26.927062,-5.4767 c 0,0 -4.497927,-6.52829 -5.933081,-12.62681 -1.288822,-5.47669 0.608521,-8.82356 0.608521,-8.82356 L 106.0624,80.260009 71.83308,88.627175 84.459893,66.111892 60.423308,50.138211 Z" /></g><g
       id="Label"
       style="display:inline;stroke-width:1.00012502;stroke-dasharray:none"
       transform="translate(9.2634533,-0.40939067)"><path
         style="font-size:46.1199px;line-height:0.7;font-family:'SPORE Bold';-inkscape-font-specification:'SPORE Bold, ';letter-spacing:-1.61751px;word-spacing:0px;fill:none;stroke:url(#linearGradient11);stroke-width:1.00012502;stroke-miterlimit:5.1;paint-order:stroke markers fill;stroke-dasharray:none;stroke-linejoin:round"
         d="m 139.84186,66.471486 h -8.82763 v 8.512364 q 0,0.945819 -0.45039,1.846598 -0.45039,0.900779 -1.30613,1.441247 -0.90078,0.540467 -2.20691,0.585506 -1.30613,-0.04504 -2.20691,-0.585506 -0.90078,-0.540468 -1.35117,-1.441247 -0.45039,-0.900779 -0.45039,-1.846598 V 59.265252 q 0,-4.684053 1.6214,-7.43143 1.57637,-2.702337 4.63902,-3.828311 1.6214,-0.585507 3.64815,-0.810702 2.02676,-0.225195 4.5039,-0.225195 h 4.09854 q 0.99086,0 1.8466,0.405351 0.90078,0.45039 1.44125,1.30613 0.54047,0.85574 0.58551,2.071792 -0.045,1.351169 -0.58551,2.251949 -0.54047,0.85574 -1.44125,1.261091 -0.85574,0.40535 -1.8466,0.40535 h -5.40467 q -2.38707,-0.04504 -3.73824,0.630546 -1.35116,0.720623 -1.3962,2.61226 v 0.85574 h 8.78259 q 1.89164,0 2.97258,0.990857 1.03589,1.035896 1.08093,2.972572 -0.045,1.936675 -1.21605,2.837455 -1.17101,0.900779 -2.79242,0.900779 z m 14.37133,12.115481 h -0.85574 q -2.52219,0 -4.14359,-1.080935 -1.6214,-1.080935 -2.38706,-3.152727 -0.27024,-0.855741 -0.40535,-1.891637 -0.0901,-1.080935 -0.0901,-2.16187 V 50.392576 q 0,-1.576364 0.99086,-2.61226 0.99085,-0.990858 2.70233,-1.035897 1.80156,0.04504 2.70234,1.080936 0.94582,0.990857 0.94582,2.522182 v 19.231638 q -0.045,0.810701 0.31527,1.351168 0.31527,0.495429 1.30613,0.585507 1.53133,0.135117 2.29699,0.990857 0.76566,0.855741 0.76566,2.387065 0,1.576364 -1.03589,2.61226 -1.08094,1.035897 -3.10769,1.080935 z m 15.67745,-6.395533 v 0 q 1.53132,0 2.56722,-1.080935 1.0359,-1.080935 1.08094,-2.792415 0,-1.891637 -1.08094,-2.882494 -1.0359,-1.035896 -2.6573,-1.035896 -1.57636,0 -2.61226,1.035896 -0.99086,0.990857 -1.03589,2.882494 0.045,1.891636 1.08093,2.882493 0.99086,0.990857 2.6573,0.990857 z m 11.30478,-3.87335 v 0 q 0,2.972571 -1.39621,5.404675 -1.44125,2.432104 -4.00847,3.828312 -2.56722,1.441247 -6.03522,1.486286 -1.93667,0 -3.87335,-0.585506 -1.93667,-0.540468 -3.51304,-1.801559 -1.57636,-1.261091 -2.52218,-3.332883 -0.94582,-2.026754 -0.99086,-4.999325 0.045,-3.287845 1.53133,-5.810027 1.48628,-2.477143 4.00847,-3.873351 2.56722,-1.396208 5.81002,-1.441247 3.06265,0.04504 5.5398,1.351169 2.47714,1.351169 3.96342,3.828312 1.44125,2.477143 1.48629,5.945144 z m 8.69641,-1.981715 v 8.872676 q 0,0.900779 -0.45039,1.711481 -0.40535,0.810701 -1.26109,1.351169 -0.8107,0.540467 -1.93667,0.585506 -1.80156,-0.04504 -2.74738,-1.080935 -0.94582,-1.035896 -0.94582,-2.567221 v -8.512364 q 0.045,-4.864208 2.47715,-7.161196 2.4321,-2.342026 6.66576,-2.342026 1.53133,0 2.8825,0.315273 1.35116,0.315273 2.38706,1.125974 0.76566,0.630546 0.99086,1.30613 0.22519,0.630546 0.22519,1.171013 0,0.945818 -0.36031,1.75652 -0.36031,0.810701 -1.03589,1.351169 -0.72063,0.540467 -1.80156,0.540467 -0.85574,-0.04504 -1.71148,-0.315272 -0.90078,-0.270234 -1.75652,-0.315273 -0.8107,0 -1.21606,0.540467 -0.40535,0.540468 -0.40535,1.666442 z m 19.82104,5.855065 v 0 q 1.66644,0 2.74738,-0.990857 1.03589,-0.990857 1.08093,-2.882493 -0.045,-1.891637 -1.08093,-2.882494 -1.08094,-1.035896 -2.6573,-1.035896 -1.6214,0 -2.74738,1.035896 -1.08093,0.990857 -1.12597,2.882494 0,1.71148 1.03589,2.792415 1.0359,1.080935 2.74738,1.080935 z m 10.49408,6.440572 h -0.2252 q -2.34202,-0.09008 -3.468,-0.85574 -1.12597,-0.810701 -1.6214,-1.666442 -1.03589,1.216052 -2.56722,1.981715 -1.53132,0.720623 -3.96343,0.765662 -2.92753,-0.04504 -5.17948,-1.30613 -2.20691,-1.30613 -3.51304,-3.693195 -1.26109,-2.342026 -1.26109,-5.62987 0.045,-3.603118 1.66644,-6.035222 1.6214,-2.477143 4.18863,-3.738234 2.61226,-1.261091 5.53979,-1.261091 5.22452,0.04504 8.01693,2.972572 2.79242,2.927533 2.79242,8.197092 v 2.026753 q 0,0.540467 0.13512,0.810701 0.13511,0.270234 0.67558,0.315273 1.44125,0.135117 2.16187,1.035896 0.72062,0.945818 0.72062,2.477143 0,1.621403 -1.08093,2.567221 -1.08094,0.990857 -3.01761,1.035896 z m 32.84119,-0.04504 h -5.13444 q -2.29699,0 -4.14359,-0.315272 -1.89163,-0.315273 -3.2428,-0.810702 -4.23367,-1.666441 -6.3505,-5.314597 -2.07179,-3.603118 -2.07179,-9.14291 0,-5.449715 2.38707,-9.323066 2.38706,-3.828312 6.936,-5.584832 1.3962,-0.540467 3.19776,-0.85574 1.80156,-0.270234 4.36878,-0.270234 h 3.82831 q 0.94582,0 1.8466,0.45039 0.90078,0.45039 1.48629,1.30613 0.54047,0.900779 0.5855,2.16187 -0.045,1.30613 -0.5855,2.161871 -0.58551,0.810701 -1.48629,1.216052 -0.90078,0.40535 -1.8466,0.40535 h -4.32374 q -1.80155,0 -3.01761,0.180156 -1.21605,0.225195 -2.02675,0.630546 -0.94582,0.495428 -1.66644,1.396208 -0.67559,0.85574 -0.90078,1.891636 h 10.35896 q 0.99086,0 1.8466,0.405351 0.90078,0.450389 1.48628,1.30613 0.54047,0.85574 0.58551,2.16187 -0.045,1.30613 -0.58551,2.16187 -0.5855,0.855741 -1.48628,1.261091 -0.85574,0.405351 -1.8466,0.405351 h -10.58416 q 0.18016,1.035896 0.81071,2.071792 0.67558,0.990858 1.80155,1.531325 0.85574,0.405351 2.25195,0.630546 1.44125,0.180156 3.10769,0.180156 h 4.77413 q 1.48629,0 2.56722,0.945818 1.08094,0.945818 1.12598,2.837455 -0.045,1.351168 -0.58551,2.206909 -0.58551,0.85574 -1.53133,1.30613 -0.90077,0.40535 -1.93667,0.40535 z m 15.90264,-6.395533 v 0 q 1.6214,0 2.70234,-0.990857 1.03589,-0.990857 1.03589,-2.927532 0,-1.891637 -1.08093,-2.882494 -1.08094,-0.990857 -2.70234,-0.990857 -1.89164,0 -2.88249,1.080935 -0.94582,1.080935 -0.94582,2.792416 0,1.891636 1.0359,2.882493 1.03589,1.035896 2.83745,1.035896 z m 3.37792,-13.511689 v -8.287169 q 0,-0.90078 0.45039,-1.711481 0.45039,-0.85574 1.26109,-1.396208 0.85574,-0.540468 1.98172,-0.540468 1.75652,0.04504 2.74737,1.125975 1.0359,1.080935 1.0359,2.522182 v 17.565196 q -0.045,5.179481 -2.88249,8.107013 -2.8825,2.927533 -8.19709,2.972572 -3.28785,0 -5.76499,-1.261091 -2.52218,-1.261091 -3.91839,-3.648156 -1.44125,-2.432104 -1.44125,-5.945143 0,-3.242806 1.26109,-5.719949 1.21605,-2.477143 3.468,-3.828312 2.20691,-1.396208 5.17948,-1.441247 1.53133,0.04504 2.79242,0.45039 1.21605,0.45039 2.02675,1.035896 z m 12.88504,-3.062649 v 0 q -1.80155,-0.04504 -2.92753,-1.171014 -1.17101,-1.171013 -1.17101,-2.927532 0,-1.711481 1.17101,-2.837455 1.12598,-1.171013 2.92753,-1.216052 1.71148,0.04504 2.8825,1.216052 1.12597,1.125974 1.17101,2.837455 -0.045,1.756519 -1.17101,2.927532 -1.17102,1.125975 -2.8825,1.171014 z m -3.64815,19.636988 V 60.976732 q 0,-1.441247 0.99085,-2.522182 0.94582,-1.080935 2.6573,-1.125974 1.21606,0.04504 2.0718,0.540468 0.8107,0.540467 1.21605,1.396208 0.40535,0.810701 0.40535,1.71148 v 14.277352 q 0,0.85574 -0.40535,1.666442 -0.40535,0.85574 -1.21605,1.351169 -0.85574,0.540467 -2.0718,0.585506 -1.71148,-0.04504 -2.6573,-1.125974 -0.99085,-1.035896 -0.99085,-2.477143 z M 303.5485,64.940161 h -2.34202 v 5.269559 q 0,0.990857 0.40535,1.441247 0.45039,0.495429 1.35117,0.495429 0.94581,-0.04504 1.66644,-0.270234 0.72062,-0.180156 1.71148,-0.225195 1.30613,0.04504 2.02675,1.035896 0.76566,1.035896 0.76566,2.432104 0,0.990857 -0.40535,1.621403 -0.45039,0.675584 -1.44124,1.171013 -1.26109,0.675584 -2.61226,0.900779 -1.35117,0.225195 -2.56722,0.225195 -3.06265,-0.04504 -4.86421,-1.035896 -1.80156,-0.990857 -2.56722,-2.792416 -0.81071,-1.801558 -0.81071,-4.278702 v -5.990182 h -0.5855 q -1.48629,0 -2.56722,-0.810701 -1.0359,-0.85574 -1.08094,-2.747377 0.045,-1.216052 0.54047,-1.981714 0.54047,-0.765663 1.39621,-1.125975 0.85574,-0.315272 1.75652,-0.315272 h 0.54046 v -3.06265 q 0.045,-1.531325 0.99086,-2.567221 0.99086,-0.990857 2.70234,-1.035896 1.75652,0.04504 2.70234,1.080935 0.94582,0.990857 0.94582,2.522182 v 3.06265 h 2.29698 q 0.94582,0 1.75652,0.315272 0.85574,0.360312 1.39621,1.125975 0.54047,0.765662 0.54047,1.981714 -0.045,1.891637 -1.08094,2.747377 -1.03589,0.810701 -2.56722,0.810701 z m 17.20878,7.251273 v 0 q 1.53132,0 2.56722,-1.080935 1.03589,-1.080935 1.08093,-2.792415 0,-1.891637 -1.08093,-2.882494 -1.0359,-1.035896 -2.6573,-1.035896 -1.57636,0 -2.61226,1.035896 -0.99086,0.990857 -1.0359,2.882494 0.045,1.891636 1.08094,2.882493 0.99086,0.990857 2.6573,0.990857 z m 11.30478,-3.87335 v 0 q 0,2.972571 -1.39621,5.404675 -1.44125,2.432104 -4.00847,3.828312 -2.56722,1.441247 -6.03522,1.486286 -1.93667,0 -3.87335,-0.585506 -1.93668,-0.540468 -3.51304,-1.801559 -1.57636,-1.261091 -2.52218,-3.332883 -0.94582,-2.026754 -0.99086,-4.999325 0.045,-3.287845 1.53133,-5.810027 1.48628,-2.477143 4.00846,-3.873351 2.56723,-1.396208 5.81003,-1.441247 3.06265,0.04504 5.53979,1.351169 2.47715,1.351169 3.96343,3.828312 1.44125,2.477143 1.48629,5.945144 z m 8.6964,-1.981715 v 8.872676 q 0,0.900779 -0.45039,1.711481 -0.40535,0.810701 -1.26109,1.351169 -0.8107,0.540467 -1.93668,0.585506 -1.80155,-0.04504 -2.74737,-1.080935 -0.94582,-1.035896 -0.94582,-2.567221 v -8.512364 q 0.045,-4.864208 2.47714,-7.161196 2.43211,-2.342026 6.66577,-2.342026 1.53132,0 2.88249,0.315273 1.35117,0.315273 2.38707,1.125974 0.76566,0.630546 0.99086,1.30613 0.22519,0.630546 0.22519,1.171013 0,0.945818 -0.36031,1.75652 -0.36031,0.810701 -1.0359,1.351169 -0.72062,0.540467 -1.80156,0.540467 -0.85574,-0.04504 -1.71148,-0.315272 -0.90078,-0.270234 -1.75652,-0.315273 -0.8107,0 -1.21605,0.540467 -0.40535,0.540468 -0.40535,1.666442 z"
         id="FloraEditorStroke"
         aria-label="Flora Editor" /><path
         style="font-size:46.1199px;line-height:0.7;font-family:'SPORE Bold';-inkscape-font-specification:'SPORE Bold, ';letter-spacing:-1.61751px;word-spacing:0px;display:inline;fill:url(#linearGradient12);stroke-width:1.00012502;stroke-miterlimit:5.1;paint-order:stroke markers fill;filter:url(#filter91);stroke-dasharray:none"
         d="m 139.84186,66.471486 h -8.82763 v 8.512364 q 0,0.945819 -0.45039,1.846598 -0.45039,0.900779 -1.30613,1.441247 -0.90078,0.540467 -2.20691,0.585506 -1.30613,-0.04504 -2.20691,-0.585506 -0.90078,-0.540468 -1.35117,-1.441247 -0.45039,-0.900779 -0.45039,-1.846598 V 59.265252 q 0,-4.684053 1.6214,-7.43143 1.57637,-2.702337 4.63902,-3.828311 1.6214,-0.585507 3.64815,-0.810702 2.02676,-0.225195 4.5039,-0.225195 h 4.09854 q 0.99086,0 1.8466,0.405351 0.90078,0.45039 1.44125,1.30613 0.54047,0.85574 0.58551,2.071792 -0.045,1.351169 -0.58551,2.251949 -0.54047,0.85574 -1.44125,1.261091 -0.85574,0.40535 -1.8466,0.40535 h -5.40467 q -2.38707,-0.04504 -3.73824,0.630546 -1.35116,0.720623 -1.3962,2.61226 v 0.85574 h 8.78259 q 1.89164,0 2.97258,0.990857 1.03589,1.035896 1.08093,2.972572 -0.045,1.936675 -1.21605,2.837455 -1.17101,0.900779 -2.79242,0.900779 z m 14.37133,12.115481 h -0.85574 q -2.52219,0 -4.14359,-1.080935 -1.6214,-1.080935 -2.38706,-3.152727 -0.27024,-0.855741 -0.40535,-1.891637 -0.0901,-1.080935 -0.0901,-2.16187 V 50.392576 q 0,-1.576364 0.99086,-2.61226 0.99085,-0.990858 2.70233,-1.035897 1.80156,0.04504 2.70234,1.080936 0.94582,0.990857 0.94582,2.522182 v 19.231638 q -0.045,0.810701 0.31527,1.351168 0.31527,0.495429 1.30613,0.585507 1.53133,0.135117 2.29699,0.990857 0.76566,0.855741 0.76566,2.387065 0,1.576364 -1.03589,2.61226 -1.08094,1.035897 -3.10769,1.080935 z m 15.67745,-6.395533 v 0 q 1.53132,0 2.56722,-1.080935 1.0359,-1.080935 1.08094,-2.792415 0,-1.891637 -1.08094,-2.882494 -1.0359,-1.035896 -2.6573,-1.035896 -1.57636,0 -2.61226,1.035896 -0.99086,0.990857 -1.03589,2.882494 0.045,1.891636 1.08093,2.882493 0.99086,0.990857 2.6573,0.990857 z m 11.30478,-3.87335 v 0 q 0,2.972571 -1.39621,5.404675 -1.44125,2.432104 -4.00847,3.828312 -2.56722,1.441247 -6.03522,1.486286 -1.93667,0 -3.87335,-0.585506 -1.93667,-0.540468 -3.51304,-1.801559 -1.57636,-1.261091 -2.52218,-3.332883 -0.94582,-2.026754 -0.99086,-4.999325 0.045,-3.287845 1.53133,-5.810027 1.48628,-2.477143 4.00847,-3.873351 2.56722,-1.396208 5.81002,-1.441247 3.06265,0.04504 5.5398,1.351169 2.47714,1.351169 3.96342,3.828312 1.44125,2.477143 1.48629,5.945144 z m 8.69641,-1.981715 v 8.872676 q 0,0.900779 -0.45039,1.711481 -0.40535,0.810701 -1.26109,1.351169 -0.8107,0.540467 -1.93667,0.585506 -1.80156,-0.04504 -2.74738,-1.080935 -0.94582,-1.035896 -0.94582,-2.567221 v -8.512364 q 0.045,-4.864208 2.47715,-7.161196 2.4321,-2.342026 6.66576,-2.342026 1.53133,0 2.8825,0.315273 1.35116,0.315273 2.38706,1.125974 0.76566,0.630546 0.99086,1.30613 0.22519,0.630546 0.22519,1.171013 0,0.945818 -0.36031,1.75652 -0.36031,0.810701 -1.03589,1.351169 -0.72063,0.540467 -1.80156,0.540467 -0.85574,-0.04504 -1.71148,-0.315272 -0.90078,-0.270234 -1.75652,-0.315273 -0.8107,0 -1.21606,0.540467 -0.40535,0.540468 -0.40535,1.666442 z m 19.82104,5.855065 v 0 q 1.66644,0 2.74738,-0.990857 1.03589,-0.990857 1.08093,-2.882493 -0.045,-1.891637 -1.08093,-2.882494 -1.08094,-1.035896 -2.6573,-1.035896 -1.6214,0 -2.74738,1.035896 -1.08093,0.990857 -1.12597,2.882494 0,1.71148 1.03589,2.792415 1.0359,1.080935 2.74738,1.080935 z m 10.49408,6.440572 h -0.2252 q -2.34202,-0.09008 -3.468,-0.85574 -1.12597,-0.810701 -1.6214,-1.666442 -1.03589,1.216052 -2.56722,1.981715 -1.53132,0.720623 -3.96343,0.765662 -2.92753,-0.04504 -5.17948,-1.30613 -2.20691,-1.30613 -3.51304,-3.693195 -1.26109,-2.342026 -1.26109,-5.62987 0.045,-3.603118 1.66644,-6.035222 1.6214,-2.477143 4.18863,-3.738234 2.61226,-1.261091 5.53979,-1.261091 5.22452,0.04504 8.01693,2.972572 2.79242,2.927533 2.79242,8.197092 v 2.026753 q 0,0.540467 0.13512,0.810701 0.13511,0.270234 0.67558,0.315273 1.44125,0.135117 2.16187,1.035896 0.72062,0.945818 0.72062,2.477143 0,1.621403 -1.08093,2.567221 -1.08094,0.990857 -3.01761,1.035896 z m 32.84119,-0.04504 h -5.13444 q -2.29699,0 -4.14359,-0.315272 -1.89163,-0.315273 -3.2428,-0.810702 -4.23367,-1.666441 -6.3505,-5.314597 -2.07179,-3.603118 -2.07179,-9.14291 0,-5.449715 2.38707,-9.323066 2.38706,-3.828312 6.936,-5.584832 1.3962,-0.540467 3.19776,-0.85574 1.80156,-0.270234 4.36878,-0.270234 h 3.82831 q 0.94582,0 1.8466,0.45039 0.90078,0.45039 1.48629,1.30613 0.54047,0.900779 0.5855,2.16187 -0.045,1.30613 -0.5855,2.161871 -0.58551,0.810701 -1.48629,1.216052 -0.90078,0.40535 -1.8466,0.40535 h -4.32374 q -1.80155,0 -3.01761,0.180156 -1.21605,0.225195 -2.02675,0.630546 -0.94582,0.495428 -1.66644,1.396208 -0.67559,0.85574 -0.90078,1.891636 h 10.35896 q 0.99086,0 1.8466,0.405351 0.90078,0.450389 1.48628,1.30613 0.54047,0.85574 0.58551,2.16187 -0.045,1.30613 -0.58551,2.16187 -0.5855,0.855741 -1.48628,1.261091 -0.85574,0.405351 -1.8466,0.405351 h -10.58416 q 0.18016,1.035896 0.81071,2.071792 0.67558,0.990858 1.80155,1.531325 0.85574,0.405351 2.25195,0.630546 1.44125,0.180156 3.10769,0.180156 h 4.77413 q 1.48629,0 2.56722,0.945818 1.08094,0.945818 1.12598,2.837455 -0.045,1.351168 -0.58551,2.206909 -0.58551,0.85574 -1.53133,1.30613 -0.90077,0.40535 -1.93667,0.40535 z m 15.90264,-6.395533 v 0 q 1.6214,0 2.70234,-0.990857 1.03589,-0.990857 1.03589,-2.927532 0,-1.891637 -1.08093,-2.882494 -1.08094,-0.990857 -2.70234,-0.990857 -1.89164,0 -2.88249,1.080935 -0.94582,1.080935 -0.94582,2.792416 0,1.891636 1.0359,2.882493 1.03589,1.035896 2.83745,1.035896 z m 3.37792,-13.511689 v -8.287169 q 0,-0.90078 0.45039,-1.711481 0.45039,-0.85574 1.26109,-1.396208 0.85574,-0.540468 1.98172,-0.540468 1.75652,0.04504 2.74737,1.125975 1.0359,1.080935 1.0359,2.522182 v 17.565196 q -0.045,5.179481 -2.88249,8.107013 -2.8825,2.927533 -8.19709,2.972572 -3.28785,0 -5.76499,-1.261091 -2.52218,-1.261091 -3.91839,-3.648156 -1.44125,-2.432104 -1.44125,-5.945143 0,-3.242806 1.26109,-5.719949 1.21605,-2.477143 3.468,-3.828312 2.20691,-1.396208 5.17948,-1.441247 1.53133,0.04504 2.79242,0.45039 1.21605,0.45039 2.02675,1.035896 z m 12.88504,-3.062649 v 0 q -1.80155,-0.04504 -2.92753,-1.171014 -1.17101,-1.171013 -1.17101,-2.927532 0,-1.711481 1.17101,-2.837455 1.12598,-1.171013 2.92753,-1.216052 1.71148,0.04504 2.8825,1.216052 1.12597,1.125974 1.17101,2.837455 -0.045,1.756519 -1.17101,2.927532 -1.17102,1.125975 -2.8825,1.171014 z m -3.64815,19.636988 V 60.976732 q 0,-1.441247 0.99085,-2.522182 0.94582,-1.080935 2.6573,-1.125974 1.21606,0.04504 2.0718,0.540468 0.8107,0.540467 1.21605,1.396208 0.40535,0.810701 0.40535,1.71148 v 14.277352 q 0,0.85574 -0.40535,1.666442 -0.40535,0.85574 -1.21605,1.351169 -0.85574,0.540467 -2.0718,0.585506 -1.71148,-0.04504 -2.6573,-1.125974 -0.99085,-1.035896 -0.99085,-2.477143 z M 303.5485,64.940161 h -2.34202 v 5.269559 q 0,0.990857 0.40535,1.441247 0.45039,0.495429 1.35117,0.495429 0.94581,-0.04504 1.66644,-0.270234 0.72062,-0.180156 1.71148,-0.225195 1.30613,0.04504 2.02675,1.035896 0.76566,1.035896 0.76566,2.432104 0,0.990857 -0.40535,1.621403 -0.45039,0.675584 -1.44124,1.171013 -1.26109,0.675584 -2.61226,0.900779 -1.35117,0.225195 -2.56722,0.225195 -3.06265,-0.04504 -4.86421,-1.035896 -1.80156,-0.990857 -2.56722,-2.792416 -0.81071,-1.801558 -0.81071,-4.278702 v -5.990182 h -0.5855 q -1.48629,0 -2.56722,-0.810701 -1.0359,-0.85574 -1.08094,-2.747377 0.045,-1.216052 0.54047,-1.981714 0.54047,-0.765663 1.39621,-1.125975 0.85574,-0.315272 1.75652,-0.315272 h 0.54046 v -3.06265 q 0.045,-1.531325 0.99086,-2.567221 0.99086,-0.990857 2.70234,-1.035896 1.75652,0.04504 2.70234,1.080935 0.94582,0.990857 0.94582,2.522182 v 3.06265 h 2.29698 q 0.94582,0 1.75652,0.315272 0.85574,0.360312 1.39621,1.125975 0.54047,0.765662 0.54047,1.981714 -0.045,1.891637 -1.08094,2.747377 -1.03589,0.810701 -2.56722,0.810701 z m 17.20878,7.251273 v 0 q 1.53132,0 2.56722,-1.080935 1.03589,-1.080935 1.08093,-2.792415 0,-1.891637 -1.08093,-2.882494 -1.0359,-1.035896 -2.6573,-1.035896 -1.57636,0 -2.61226,1.035896 -0.99086,0.990857 -1.0359,2.882494 0.045,1.891636 1.08094,2.882493 0.99086,0.990857 2.6573,0.990857 z m 11.30478,-3.87335 v 0 q 0,2.972571 -1.39621,5.404675 -1.44125,2.432104 -4.00847,3.828312 -2.56722,1.441247 -6.03522,1.486286 -1.93667,0 -3.87335,-0.585506 -1.93668,-0.540468 -3.51304,-1.801559 -1.57636,-1.261091 -2.52218,-3.332883 -0.94582,-2.026754 -0.99086,-4.999325 0.045,-3.287845 1.53133,-5.810027 1.48628,-2.477143 4.00846,-3.873351 2.56723,-1.396208 5.81003,-1.441247 3.06265,0.04504 5.53979,1.351169 2.47715,1.351169 3.96343,3.828312 1.44125,2.477143 1.48629,5.945144 z m 8.6964,-1.981715 v 8.872676 q 0,0.900779 -0.45039,1.711481 -0.40535,0.810701 -1.26109,1.351169 -0.8107,0.540467 -1.93668,0.585506 -1.80155,-0.04504 -2.74737,-1.080935 -0.94582,-1.035896 -0.94582,-2.567221 v -8.512364 q 0.045,-4.864208 2.47714,-7.161196 2.43211,-2.342026 6.66577,-2.342026 1.53132,0 2.88249,0.315273 1.35117,0.315273 2.38707,1.125974 0.76566,0.630546 0.99086,1.30613 0.22519,0.630546 0.22519,1.171013 0,0.945818 -0.36031,1.75652 -0.36031,0.810701 -1.0359,1.351169 -0.72062,0.540467 -1.80156,0.540467 -0.85574,-0.04504 -1.71148,-0.315272 -0.90078,-0.270234 -1.75652,-0.315273 -0.8107,0 -1.21605,0.540467 -0.40535,0.540468 -0.40535,1.666442 z"
         id="FloraEditorText"
         aria-label="Flora Editor" /><path
         style="font-size:46.1199px;line-height:0.7;font-family:'SPORE Bold';-inkscape-font-specification:'SPORE Bold, ';letter-spacing:-1.61751px;word-spacing:0px;fill:none;stroke:url(#linearGradient13);stroke-width:1.00012502;stroke-miterlimit:5.1;paint-order:stroke markers fill;stroke-dasharray:none;stroke-linejoin:round"
         d="m 131.01423,100.84863 3.10768,1.66644 q 1.2611,-0.0901 2.6573,-0.67558 1.39621,-0.63055 2.43211,-1.891637 0.99086,-1.261091 1.03589,-3.287845 0,-2.071792 -1.17101,-3.242805 -1.17101,-1.216052 -3.28784,-1.216052 -2.52219,0 -3.64816,1.486286 -1.12597,1.441246 -1.12597,4.143584 z m 10.26888,15.22317 -10.26888,-6.66576 v 3.42296 q 0,1.66644 -0.99086,2.74737 -0.99086,1.08094 -2.92753,1.12598 -1.89164,-0.045 -2.97258,-1.17102 -1.03589,-1.08093 -1.08093,-2.70233 V 97.831021 q 0,-2.522182 0.49543,-4.503896 0.49543,-1.981715 1.35117,-3.377923 1.66644,-2.747376 4.41382,-4.188623 2.79241,-1.396208 6.80088,-1.396208 3.55808,0 6.35049,1.396208 2.79242,1.396208 4.41382,3.963429 1.6214,2.61226 1.66644,6.215377 -0.045,3.01761 -0.99085,5.134445 -0.99086,2.07179 -2.56722,3.51304 -1.57637,1.3962 -3.468,2.34202 l 3.96342,2.43211 q 0.90078,0.49542 1.39621,1.30613 0.49543,0.8107 0.49543,1.93667 0,0.94582 -0.45039,1.89164 -0.45039,0.94582 -1.35117,1.53132 -0.85574,0.63055 -2.11683,0.67559 -0.49543,0 -1.08093,-0.13512 -0.54047,-0.18016 -1.08094,-0.49543 z m 15.81257,-12.0254 h 6.17034 q -0.18016,-1.44125 -1.08094,-2.16187 -0.85574,-0.67559 -1.89163,-0.67559 -1.35117,0.045 -2.20691,0.8107 -0.85574,0.76567 -0.99086,2.02676 z m 9.41314,3.42296 h -9.41314 q 0.0901,1.17101 0.85574,1.8466 0.8107,0.72062 2.16187,0.72062 1.53132,-0.045 2.52218,-0.31527 0.99086,-0.31527 2.07179,-0.36031 1.2611,0.045 2.0718,0.99085 0.8107,0.94582 0.8107,2.43211 0,0.94582 -0.36031,1.53132 -0.36032,0.58551 -0.90078,0.94582 -0.94582,0.63055 -2.56722,1.12597 -1.57637,0.45039 -3.82832,0.49543 -2.79241,0 -5.13444,-1.17101 -2.38706,-1.12597 -3.82831,-3.51304 -1.44125,-2.4321 -1.48629,-6.17034 0,-3.33288 1.35117,-5.81002 1.35117,-2.432108 3.78328,-3.783277 2.4321,-1.351169 5.62987,-1.396208 3.28784,0.04504 5.40467,1.351169 2.16187,1.30613 3.19777,3.422962 1.0359,2.116834 1.0359,4.593974 0,1.57636 -0.99086,2.34203 -0.94582,0.72062 -2.38707,0.72062 z m 22.11803,6.89096 v 0 q -1.17102,1.12598 -2.97257,1.80156 -1.8466,0.67558 -4.14359,0.72062 -2.70234,0 -5.17948,-1.12597 -2.47714,-1.08094 -4.05351,-3.42296 -1.57636,-2.38707 -1.6214,-6.1253 0,-3.33288 1.35117,-5.85507 1.35117,-2.47714 3.78327,-3.873348 2.43211,-1.396208 5.62987,-1.441247 2.43211,0.04504 4.45886,0.810702 2.07179,0.765662 3.28785,2.116831 0.5855,0.630546 0.85574,1.216052 0.27023,0.630546 0.27023,1.30613 -0.045,1.53132 -0.99086,2.47714 -0.94582,0.99086 -2.52218,1.0359 -0.72062,0 -1.30613,-0.27023 -0.63054,-0.27024 -1.17101,-0.63055 -0.67559,-0.40535 -1.39621,-0.67558 -0.72062,-0.27024 -1.57636,-0.27024 -1.2611,0 -2.16187,0.90078 -0.94582,0.94582 -0.99086,2.88249 0,1.8466 0.94582,2.97258 0.90078,1.12597 2.38706,1.12597 0.85574,0 1.57637,-0.27023 0.76566,-0.27024 1.44124,-0.67559 0.67559,-0.40535 1.17102,-0.63054 0.54046,-0.18016 1.08093,-0.18016 1.30613,0.045 2.20691,0.94582 0.85574,0.94582 0.90078,2.47714 -0.045,0.94582 -0.40535,1.62141 -0.36031,0.63054 -0.85574,1.03589 z m 13.38047,-4.32374 v 0 q 1.53132,0 2.56722,-1.08093 1.03589,-1.08094 1.08093,-2.79242 0,-1.89164 -1.08093,-2.88249 -1.0359,-1.0359 -2.6573,-1.0359 -1.57637,0 -2.61226,1.0359 -0.99086,0.99085 -1.0359,2.88249 0.045,1.89164 1.08094,2.88249 0.99085,0.99086 2.6573,0.99086 z m 11.30478,-3.87335 v 0 q 0,2.97257 -1.39621,5.40468 -1.44125,2.4321 -4.00847,3.82831 -2.56722,1.44124 -6.03522,1.48628 -1.93668,0 -3.87335,-0.5855 -1.93668,-0.54047 -3.51304,-1.80156 -1.57636,-1.26109 -2.52218,-3.33289 -0.94582,-2.02675 -0.99086,-4.99932 0.045,-3.28784 1.53132,-5.81003 1.48629,-2.47714 4.00847,-3.873348 2.56722,-1.396208 5.81003,-1.441247 3.06265,0.04504 5.53979,1.351169 2.47714,1.351169 3.96343,3.828316 1.44125,2.47714 1.48629,5.94514 z m 12.79495,6.936 v -9.09787 q 0,-1.0359 -0.54047,-1.53133 -0.54046,-0.49542 -1.44124,-0.49542 -0.99086,0 -1.57637,0.49542 -0.54046,0.49543 -0.54046,1.53133 v 9.09787 q 0,0.85574 -0.45039,1.66644 -0.40535,0.85574 -1.26109,1.35117 -0.81071,0.54047 -1.93668,0.58551 -1.89164,-0.045 -2.79242,-1.08094 -0.90078,-1.08093 -0.90078,-2.52218 v -9.09787 q 0,-3.06265 1.2611,-5.044365 1.21605,-1.981714 3.42296,-2.927532 2.25195,-0.990858 5.22452,-0.990858 4.41382,0.04504 6.62072,2.251949 2.25195,2.206909 2.25195,6.350496 v 9.45818 q 0,0.85574 -0.40535,1.66644 -0.40535,0.85574 -1.21605,1.35117 -0.8107,0.54047 -2.02675,0.58551 -1.71148,-0.045 -2.70234,-1.08094 -0.99086,-1.08093 -0.99086,-2.52218 z m 26.48681,-3.42296 v 0 q -0.045,2.4321 -1.21605,4.05351 -1.12598,1.57636 -3.15273,2.34202 -2.02675,0.8107 -4.59397,0.8107 -2.79242,-0.045 -4.81917,-0.8107 -2.0718,-0.76566 -3.01761,-1.80156 -0.45039,-0.49543 -0.63055,-0.94581 -0.18016,-0.49543 -0.18016,-1.12598 0,-0.85574 0.49543,-1.53132 0.45039,-0.72063 1.17102,-1.17102 0.67558,-0.40535 1.35116,-0.40535 0.54047,0 0.94582,0.18016 0.40535,0.22519 0.67559,0.36031 1.17101,0.63055 2.16187,0.99086 0.99086,0.36031 1.98171,0.36031 0.63055,0 1.08094,-0.18016 0.40535,-0.22519 0.45039,-0.76566 0,-0.58551 -0.58551,-0.8107 -0.63054,-0.2252 -1.71148,-0.40535 -2.16187,-0.40535 -3.96343,-1.0359 -1.80156,-0.63054 -2.88249,-1.98171 -1.08094,-1.35117 -1.08094,-3.82831 0,-2.206913 1.17102,-3.783277 1.17101,-1.531325 3.06264,-2.342026 1.93668,-0.810702 4.32375,-0.810702 2.52218,0.04504 4.50389,0.630546 1.93668,0.585507 3.01761,1.531325 0.49543,0.495428 0.72063,0.945818 0.27023,0.45039 0.22519,0.990857 0,0.765663 -0.31527,1.441249 -0.31527,0.72062 -0.94582,1.17101 -0.67558,0.49543 -1.57636,0.49543 -0.63055,0 -1.21606,-0.18016 -0.63054,-0.18015 -1.30613,-0.49542 -0.94581,-0.45039 -1.75652,-0.67559 -0.76566,-0.22519 -1.3962,-0.22519 -0.58551,0 -0.90078,0.22519 -0.31528,0.18016 -0.31528,0.63055 0,0.54046 0.63055,0.8107 0.63055,0.22519 1.75652,0.40535 1.98171,0.31527 3.78327,0.99086 1.75652,0.63054 2.8825,2.02675 1.12597,1.39621 1.17101,3.91839 z m 14.41636,-6.89096 h -2.34203 v 5.26956 q 0,0.99085 0.40535,1.44124 0.45039,0.49543 1.35117,0.49543 0.94582,-0.045 1.66644,-0.27023 0.72063,-0.18016 1.71148,-0.2252 1.30613,0.045 2.02676,1.0359 0.76566,1.0359 0.76566,2.4321 0,0.99086 -0.40535,1.62141 -0.45039,0.67558 -1.44125,1.17101 -1.26109,0.67558 -2.61226,0.90078 -1.35117,0.22519 -2.56722,0.22519 -3.06265,-0.045 -4.86421,-1.03589 -1.80156,-0.99086 -2.56722,-2.79242 -0.8107,-1.80156 -0.8107,-4.2787 v -5.99018 h -0.58551 q -1.48628,0 -2.56722,-0.8107 -1.03589,-0.85574 -1.08093,-2.747381 0.045,-1.216052 0.54047,-1.981714 0.54046,-0.765663 1.3962,-1.125974 0.85574,-0.315273 1.75652,-0.315273 h 0.54047 v -3.06265 q 0.045,-1.531325 0.99086,-2.567221 0.99085,-0.990857 2.70234,-1.035896 1.75652,0.04504 2.70233,1.080935 0.94582,0.990857 0.94582,2.522182 v 3.06265 h 2.29699 q 0.94582,0 1.75652,0.315273 0.85574,0.360311 1.39621,1.125974 0.54046,0.765662 0.54046,1.981714 -0.045,1.891641 -1.08093,2.747381 -1.0359,0.8107 -2.56722,0.8107 z m 13.96597,1.39621 v 8.87267 q 0,0.90078 -0.45039,1.71148 -0.40535,0.8107 -1.26109,1.35117 -0.8107,0.54047 -1.93668,0.58551 -1.80156,-0.045 -2.74737,-1.08094 -0.94582,-1.03589 -0.94582,-2.56722 v -8.51236 q 0.045,-4.864211 2.47714,-7.161198 2.4321,-2.342027 6.66577,-2.342027 1.53132,0 2.88249,0.315273 1.35117,0.315273 2.38707,1.125974 0.76566,0.630546 0.99085,1.30613 0.2252,0.630546 0.2252,1.171013 0,0.945819 -0.36031,1.756525 -0.36032,0.8107 -1.0359,1.35116 -0.72062,0.54047 -1.80156,0.54047 -0.85574,-0.045 -1.71148,-0.31527 -0.90078,-0.27024 -1.75652,-0.31527 -0.8107,0 -1.21605,0.54046 -0.40535,0.54047 -0.40535,1.66645 z m 27.70285,-5.359642 v 9.097872 q 0,4.14358 -2.38707,6.53065 -2.38706,2.38706 -7.16119,2.4321 -4.32374,0 -6.75585,-2.16187 -2.4321,-2.20691 -2.47714,-7.07111 v -8.827642 q 0,-1.441246 0.94582,-2.477143 0.94582,-1.080935 2.74738,-1.125974 1.12597,0.04504 1.93667,0.540468 0.85574,0.540467 1.26109,1.351169 0.45039,0.810701 0.45039,1.71148 v 8.962752 q 0,1.17102 0.58551,1.66644 0.63054,0.54047 1.57636,0.49543 0.90078,0 1.39621,-0.54046 0.54047,-0.54047 0.54047,-1.66645 v -8.917712 q 0,-1.441246 0.99086,-2.477143 0.99085,-1.080935 2.74737,-1.125974 1.21605,0.04504 2.02676,0.540468 0.76566,0.540467 1.17101,1.351169 0.40535,0.810701 0.40535,1.71148 z m 19.32562,15.538442 v 0 q -1.17101,1.12598 -2.97257,1.80156 -1.8466,0.67558 -4.14359,0.72062 -2.70233,0 -5.17948,-1.12597 -2.47714,-1.08094 -4.0535,-3.42296 -1.57637,-2.38707 -1.62141,-6.1253 0,-3.33288 1.35117,-5.85507 1.35117,-2.47714 3.78327,-3.873348 2.43211,-1.396208 5.62988,-1.441247 2.4321,0.04504 4.45885,0.810702 2.0718,0.765662 3.28785,2.116831 0.5855,0.630546 0.85574,1.216052 0.27023,0.630546 0.27023,1.30613 -0.045,1.53132 -0.99086,2.47714 -0.94581,0.99086 -2.52218,1.0359 -0.72062,0 -1.30613,-0.27023 -0.63054,-0.27024 -1.17101,-0.63055 -0.67559,-0.40535 -1.39621,-0.67558 -0.72062,-0.27024 -1.57636,-0.27024 -1.26109,0 -2.16187,0.90078 -0.94582,0.94582 -0.99086,2.88249 0,1.8466 0.94582,2.97258 0.90078,1.12597 2.38706,1.12597 0.85574,0 1.57637,-0.27023 0.76566,-0.27024 1.44124,-0.67559 0.67559,-0.40535 1.17102,-0.63054 0.54046,-0.18016 1.08093,-0.18016 1.30613,0.045 2.20691,0.94582 0.85574,0.94582 0.90078,2.47714 -0.045,0.94582 -0.40535,1.62141 -0.36031,0.63054 -0.85574,1.03589 z m 15.6324,-11.57501 h -2.34202 v 5.26956 q 0,0.99085 0.40535,1.44124 0.45039,0.49543 1.35117,0.49543 0.94582,-0.045 1.66644,-0.27023 0.72062,-0.18016 1.71148,-0.2252 1.30613,0.045 2.02675,1.0359 0.76567,1.0359 0.76567,2.4321 0,0.99086 -0.40535,1.62141 -0.45039,0.67558 -1.44125,1.17101 -1.26109,0.67558 -2.61226,0.90078 -1.35117,0.22519 -2.56722,0.22519 -3.06265,-0.045 -4.86421,-1.03589 -1.80156,-0.99086 -2.56722,-2.79242 -0.8107,-1.80156 -0.8107,-4.2787 v -5.99018 h -0.58551 q -1.48629,0 -2.56722,-0.8107 -1.0359,-0.85574 -1.08094,-2.747381 0.045,-1.216052 0.54047,-1.981714 0.54047,-0.765663 1.39621,-1.125974 0.85574,-0.315273 1.75652,-0.315273 h 0.54047 v -3.06265 q 0.045,-1.531325 0.99085,-2.567221 0.99086,-0.990857 2.70234,-1.035896 1.75652,0.04504 2.70234,1.080935 0.94582,0.990857 0.94582,2.522182 v 3.06265 h 2.29699 q 0.94581,0 1.75651,0.315273 0.85575,0.360311 1.39621,1.125974 0.54047,0.765662 0.54047,1.981714 -0.045,1.891641 -1.08093,2.747381 -1.0359,0.8107 -2.56723,0.8107 z m 10.31782,-9.323068 v 0 q -1.80156,-0.04504 -2.92753,-1.171013 -1.17102,-1.171013 -1.17102,-2.927533 0,-1.711481 1.17102,-2.837455 1.12597,-1.171013 2.92753,-1.216052 1.71148,0.04504 2.88249,1.216052 1.12598,1.125974 1.17102,2.837455 -0.045,1.75652 -1.17102,2.927533 -1.17101,1.125974 -2.88249,1.171013 z m -3.64816,19.636988 V 98.821878 q 0,-1.441246 0.99086,-2.522182 0.94582,-1.080935 2.6573,-1.125974 1.21605,0.04504 2.07179,0.540468 0.8107,0.540468 1.21605,1.396208 0.40535,0.810701 0.40535,1.71148 v 14.277352 q 0,0.85574 -0.40535,1.66644 -0.40535,0.85574 -1.21605,1.35117 -0.85574,0.54047 -2.07179,0.58551 -1.71148,-0.045 -2.6573,-1.12598 -0.99086,-1.03589 -0.99086,-2.47714 z m 19.73097,-3.06265 v 0 q 1.53132,0 2.56722,-1.08093 1.0359,-1.08094 1.08093,-2.79242 0,-1.89164 -1.08093,-2.88249 -1.0359,-1.0359 -2.6573,-1.0359 -1.57636,0 -2.61226,1.0359 -0.99086,0.99085 -1.0359,2.88249 0.045,1.89164 1.08094,2.88249 0.99086,0.99086 2.6573,0.99086 z m 11.30478,-3.87335 v 0 q 0,2.97257 -1.39621,5.40468 -1.44125,2.4321 -4.00847,3.82831 -2.56722,1.44124 -6.03522,1.48628 -1.93667,0 -3.87335,-0.5855 -1.93667,-0.54047 -3.51304,-1.80156 -1.57636,-1.26109 -2.52218,-3.33289 -0.94582,-2.02675 -0.99086,-4.99932 0.045,-3.28784 1.53133,-5.81003 1.48628,-2.47714 4.00846,-3.873348 2.56723,-1.396208 5.81003,-1.441247 3.06265,0.04504 5.53979,1.351169 2.47715,1.351169 3.96343,3.828316 1.44125,2.47714 1.48629,5.94514 z m 12.79496,6.936 v -9.09787 q 0,-1.0359 -0.54047,-1.53133 -0.54046,-0.49542 -1.44124,-0.49542 -0.99086,0 -1.57637,0.49542 -0.54046,0.49543 -0.54046,1.53133 v 9.09787 q 0,0.85574 -0.45039,1.66644 -0.40535,0.85574 -1.26109,1.35117 -0.81071,0.54047 -1.93668,0.58551 -1.89164,-0.045 -2.79242,-1.08094 -0.90077,-1.08093 -0.90077,-2.52218 v -9.09787 q 0,-3.06265 1.26109,-5.044365 1.21605,-1.981714 3.42296,-2.927532 2.25195,-0.990858 5.22452,-0.990858 4.41382,0.04504 6.62073,2.251949 2.25194,2.206909 2.25194,6.350496 v 9.45818 q 0,0.85574 -0.40535,1.66644 -0.40535,0.85574 -1.21605,1.35117 -0.8107,0.54047 -2.02675,0.58551 -1.71148,-0.045 -2.70234,-1.08094 -0.99086,-1.08093 -0.99086,-2.52218 z"
         id="ReconstructionStroke"
         aria-label="Reconstruction" /><path
         style="font-size:46.1199px;line-height:0.7;font-family:'SPORE Bold';-inkscape-font-specification:'SPORE Bold, ';letter-spacing:-1.61751px;word-spacing:0px;display:inline;fill:url(#linearGradient14);stroke-width:1.00012502;stroke-miterlimit:5.1;paint-order:stroke markers fill;filter:url(#filter95);stroke-dasharray:none"
         d="m 131.01423,100.84863 3.10768,1.66644 q 1.2611,-0.0901 2.6573,-0.67558 1.39621,-0.63055 2.43211,-1.891637 0.99086,-1.261091 1.03589,-3.287845 0,-2.071792 -1.17101,-3.242805 -1.17101,-1.216052 -3.28784,-1.216052 -2.52219,0 -3.64816,1.486286 -1.12597,1.441246 -1.12597,4.143584 z m 10.26888,15.22317 -10.26888,-6.66576 v 3.42296 q 0,1.66644 -0.99086,2.74737 -0.99086,1.08094 -2.92753,1.12598 -1.89164,-0.045 -2.97258,-1.17102 -1.03589,-1.08093 -1.08093,-2.70233 V 97.831021 q 0,-2.522182 0.49543,-4.503896 0.49543,-1.981715 1.35117,-3.377923 1.66644,-2.747376 4.41382,-4.188623 2.79241,-1.396208 6.80088,-1.396208 3.55808,0 6.35049,1.396208 2.79242,1.396208 4.41382,3.963429 1.6214,2.61226 1.66644,6.215377 -0.045,3.01761 -0.99085,5.134445 -0.99086,2.07179 -2.56722,3.51304 -1.57637,1.3962 -3.468,2.34202 l 3.96342,2.43211 q 0.90078,0.49542 1.39621,1.30613 0.49543,0.8107 0.49543,1.93667 0,0.94582 -0.45039,1.89164 -0.45039,0.94582 -1.35117,1.53132 -0.85574,0.63055 -2.11683,0.67559 -0.49543,0 -1.08093,-0.13512 -0.54047,-0.18016 -1.08094,-0.49543 z m 15.81257,-12.0254 h 6.17034 q -0.18016,-1.44125 -1.08094,-2.16187 -0.85574,-0.67559 -1.89163,-0.67559 -1.35117,0.045 -2.20691,0.8107 -0.85574,0.76567 -0.99086,2.02676 z m 9.41314,3.42296 h -9.41314 q 0.0901,1.17101 0.85574,1.8466 0.8107,0.72062 2.16187,0.72062 1.53132,-0.045 2.52218,-0.31527 0.99086,-0.31527 2.07179,-0.36031 1.2611,0.045 2.0718,0.99085 0.8107,0.94582 0.8107,2.43211 0,0.94582 -0.36031,1.53132 -0.36032,0.58551 -0.90078,0.94582 -0.94582,0.63055 -2.56722,1.12597 -1.57637,0.45039 -3.82832,0.49543 -2.79241,0 -5.13444,-1.17101 -2.38706,-1.12597 -3.82831,-3.51304 -1.44125,-2.4321 -1.48629,-6.17034 0,-3.33288 1.35117,-5.81002 1.35117,-2.432108 3.78328,-3.783277 2.4321,-1.351169 5.62987,-1.396208 3.28784,0.04504 5.40467,1.351169 2.16187,1.30613 3.19777,3.422962 1.0359,2.116834 1.0359,4.593974 0,1.57636 -0.99086,2.34203 -0.94582,0.72062 -2.38707,0.72062 z m 22.11803,6.89096 v 0 q -1.17102,1.12598 -2.97257,1.80156 -1.8466,0.67558 -4.14359,0.72062 -2.70234,0 -5.17948,-1.12597 -2.47714,-1.08094 -4.05351,-3.42296 -1.57636,-2.38707 -1.6214,-6.1253 0,-3.33288 1.35117,-5.85507 1.35117,-2.47714 3.78327,-3.873348 2.43211,-1.396208 5.62987,-1.441247 2.43211,0.04504 4.45886,0.810702 2.07179,0.765662 3.28785,2.116831 0.5855,0.630546 0.85574,1.216052 0.27023,0.630546 0.27023,1.30613 -0.045,1.53132 -0.99086,2.47714 -0.94582,0.99086 -2.52218,1.0359 -0.72062,0 -1.30613,-0.27023 -0.63054,-0.27024 -1.17101,-0.63055 -0.67559,-0.40535 -1.39621,-0.67558 -0.72062,-0.27024 -1.57636,-0.27024 -1.2611,0 -2.16187,0.90078 -0.94582,0.94582 -0.99086,2.88249 0,1.8466 0.94582,2.97258 0.90078,1.12597 2.38706,1.12597 0.85574,0 1.57637,-0.27023 0.76566,-0.27024 1.44124,-0.67559 0.67559,-0.40535 1.17102,-0.63054 0.54046,-0.18016 1.08093,-0.18016 1.30613,0.045 2.20691,0.94582 0.85574,0.94582 0.90078,2.47714 -0.045,0.94582 -0.40535,1.62141 -0.36031,0.63054 -0.85574,1.03589 z m 13.38047,-4.32374 v 0 q 1.53132,0 2.56722,-1.08093 1.03589,-1.08094 1.08093,-2.79242 0,-1.89164 -1.08093,-2.88249 -1.0359,-1.0359 -2.6573,-1.0359 -1.57637,0 -2.61226,1.0359 -0.99086,0.99085 -1.0359,2.88249 0.045,1.89164 1.08094,2.88249 0.99085,0.99086 2.6573,0.99086 z m 11.30478,-3.87335 v 0 q 0,2.97257 -1.39621,5.40468 -1.44125,2.4321 -4.00847,3.82831 -2.56722,1.44124 -6.03522,1.48628 -1.93668,0 -3.87335,-0.5855 -1.93668,-0.54047 -3.51304,-1.80156 -1.57636,-1.26109 -2.52218,-3.33289 -0.94582,-2.02675 -0.99086,-4.99932 0.045,-3.28784 1.53132,-5.81003 1.48629,-2.47714 4.00847,-3.873348 2.56722,-1.396208 5.81003,-1.441247 3.06265,0.04504 5.53979,1.351169 2.47714,1.351169 3.96343,3.828316 1.44125,2.47714 1.48629,5.94514 z m 12.79495,6.936 v -9.09787 q 0,-1.0359 -0.54047,-1.53133 -0.54046,-0.49542 -1.44124,-0.49542 -0.99086,0 -1.57637,0.49542 -0.54046,0.49543 -0.54046,1.53133 v 9.09787 q 0,0.85574 -0.45039,1.66644 -0.40535,0.85574 -1.26109,1.35117 -0.81071,0.54047 -1.93668,0.58551 -1.89164,-0.045 -2.79242,-1.08094 -0.90078,-1.08093 -0.90078,-2.52218 v -9.09787 q 0,-3.06265 1.2611,-5.044365 1.21605,-1.981714 3.42296,-2.927532 2.25195,-0.990858 5.22452,-0.990858 4.41382,0.04504 6.62072,2.251949 2.25195,2.206909 2.25195,6.350496 v 9.45818 q 0,0.85574 -0.40535,1.66644 -0.40535,0.85574 -1.21605,1.35117 -0.8107,0.54047 -2.02675,0.58551 -1.71148,-0.045 -2.70234,-1.08094 -0.99086,-1.08093 -0.99086,-2.52218 z m 26.48681,-3.42296 v 0 q -0.045,2.4321 -1.21605,4.05351 -1.12598,1.57636 -3.15273,2.34202 -2.02675,0.8107 -4.59397,0.8107 -2.79242,-0.045 -4.81917,-0.8107 -2.0718,-0.76566 -3.01761,-1.80156 -0.45039,-0.49543 -0.63055,-0.94581 -0.18016,-0.49543 -0.18016,-1.12598 0,-0.85574 0.49543,-1.53132 0.45039,-0.72063 1.17102,-1.17102 0.67558,-0.40535 1.35116,-0.40535 0.54047,0 0.94582,0.18016 0.40535,0.22519 0.67559,0.36031 1.17101,0.63055 2.16187,0.99086 0.99086,0.36031 1.98171,0.36031 0.63055,0 1.08094,-0.18016 0.40535,-0.22519 0.45039,-0.76566 0,-0.58551 -0.58551,-0.8107 -0.63054,-0.2252 -1.71148,-0.40535 -2.16187,-0.40535 -3.96343,-1.0359 -1.80156,-0.63054 -2.88249,-1.98171 -1.08094,-1.35117 -1.08094,-3.82831 0,-2.206913 1.17102,-3.783277 1.17101,-1.531325 3.06264,-2.342026 1.93668,-0.810702 4.32375,-0.810702 2.52218,0.04504 4.50389,0.630546 1.93668,0.585507 3.01761,1.531325 0.49543,0.495428 0.72063,0.945818 0.27023,0.45039 0.22519,0.990857 0,0.765663 -0.31527,1.441249 -0.31527,0.72062 -0.94582,1.17101 -0.67558,0.49543 -1.57636,0.49543 -0.63055,0 -1.21606,-0.18016 -0.63054,-0.18015 -1.30613,-0.49542 -0.94581,-0.45039 -1.75652,-0.67559 -0.76566,-0.22519 -1.3962,-0.22519 -0.58551,0 -0.90078,0.22519 -0.31528,0.18016 -0.31528,0.63055 0,0.54046 0.63055,0.8107 0.63055,0.22519 1.75652,0.40535 1.98171,0.31527 3.78327,0.99086 1.75652,0.63054 2.8825,2.02675 1.12597,1.39621 1.17101,3.91839 z m 14.41636,-6.89096 h -2.34203 v 5.26956 q 0,0.99085 0.40535,1.44124 0.45039,0.49543 1.35117,0.49543 0.94582,-0.045 1.66644,-0.27023 0.72063,-0.18016 1.71148,-0.2252 1.30613,0.045 2.02676,1.0359 0.76566,1.0359 0.76566,2.4321 0,0.99086 -0.40535,1.62141 -0.45039,0.67558 -1.44125,1.17101 -1.26109,0.67558 -2.61226,0.90078 -1.35117,0.22519 -2.56722,0.22519 -3.06265,-0.045 -4.86421,-1.03589 -1.80156,-0.99086 -2.56722,-2.79242 -0.8107,-1.80156 -0.8107,-4.2787 v -5.99018 h -0.58551 q -1.48628,0 -2.56722,-0.8107 -1.03589,-0.85574 -1.08093,-2.747381 0.045,-1.216052 0.54047,-1.981714 0.54046,-0.765663 1.3962,-1.125974 0.85574,-0.315273 1.75652,-0.315273 h 0.54047 v -3.06265 q 0.045,-1.531325 0.99086,-2.567221 0.99085,-0.990857 2.70234,-1.035896 1.75652,0.04504 2.70233,1.080935 0.94582,0.990857 0.94582,2.522182 v 3.06265 h 2.29699 q 0.94582,0 1.75652,0.315273 0.85574,0.360311 1.39621,1.125974 0.54046,0.765662 0.54046,1.981714 -0.045,1.891641 -1.08093,2.747381 -1.0359,0.8107 -2.56722,0.8107 z m 13.96597,1.39621 v 8.87267 q 0,0.90078 -0.45039,1.71148 -0.40535,0.8107 -1.26109,1.35117 -0.8107,0.54047 -1.93668,0.58551 -1.80156,-0.045 -2.74737,-1.08094 -0.94582,-1.03589 -0.94582,-2.56722 v -8.51236 q 0.045,-4.864211 2.47714,-7.161198 2.4321,-2.342027 6.66577,-2.342027 1.53132,0 2.88249,0.315273 1.35117,0.315273 2.38707,1.125974 0.76566,0.630546 0.99085,1.30613 0.2252,0.630546 0.2252,1.171013 0,0.945819 -0.36031,1.756525 -0.36032,0.8107 -1.0359,1.35116 -0.72062,0.54047 -1.80156,0.54047 -0.85574,-0.045 -1.71148,-0.31527 -0.90078,-0.27024 -1.75652,-0.31527 -0.8107,0 -1.21605,0.54046 -0.40535,0.54047 -0.40535,1.66645 z m 27.70285,-5.359642 v 9.097872 q 0,4.14358 -2.38707,6.53065 -2.38706,2.38706 -7.16119,2.4321 -4.32374,0 -6.75585,-2.16187 -2.4321,-2.20691 -2.47714,-7.07111 v -8.827642 q 0,-1.441246 0.94582,-2.477143 0.94582,-1.080935 2.74738,-1.125974 1.12597,0.04504 1.93667,0.540468 0.85574,0.540467 1.26109,1.351169 0.45039,0.810701 0.45039,1.71148 v 8.962752 q 0,1.17102 0.58551,1.66644 0.63054,0.54047 1.57636,0.49543 0.90078,0 1.39621,-0.54046 0.54047,-0.54047 0.54047,-1.66645 v -8.917712 q 0,-1.441246 0.99086,-2.477143 0.99085,-1.080935 2.74737,-1.125974 1.21605,0.04504 2.02676,0.540468 0.76566,0.540467 1.17101,1.351169 0.40535,0.810701 0.40535,1.71148 z m 19.32562,15.538442 v 0 q -1.17101,1.12598 -2.97257,1.80156 -1.8466,0.67558 -4.14359,0.72062 -2.70233,0 -5.17948,-1.12597 -2.47714,-1.08094 -4.0535,-3.42296 -1.57637,-2.38707 -1.62141,-6.1253 0,-3.33288 1.35117,-5.85507 1.35117,-2.47714 3.78327,-3.873348 2.43211,-1.396208 5.62988,-1.441247 2.4321,0.04504 4.45885,0.810702 2.0718,0.765662 3.28785,2.116831 0.5855,0.630546 0.85574,1.216052 0.27023,0.630546 0.27023,1.30613 -0.045,1.53132 -0.99086,2.47714 -0.94581,0.99086 -2.52218,1.0359 -0.72062,0 -1.30613,-0.27023 -0.63054,-0.27024 -1.17101,-0.63055 -0.67559,-0.40535 -1.39621,-0.67558 -0.72062,-0.27024 -1.57636,-0.27024 -1.26109,0 -2.16187,0.90078 -0.94582,0.94582 -0.99086,2.88249 0,1.8466 0.94582,2.97258 0.90078,1.12597 2.38706,1.12597 0.85574,0 1.57637,-0.27023 0.76566,-0.27024 1.44124,-0.67559 0.67559,-0.40535 1.17102,-0.63054 0.54046,-0.18016 1.08093,-0.18016 1.30613,0.045 2.20691,0.94582 0.85574,0.94582 0.90078,2.47714 -0.045,0.94582 -0.40535,1.62141 -0.36031,0.63054 -0.85574,1.03589 z m 15.6324,-11.57501 h -2.34202 v 5.26956 q 0,0.99085 0.40535,1.44124 0.45039,0.49543 1.35117,0.49543 0.94582,-0.045 1.66644,-0.27023 0.72062,-0.18016 1.71148,-0.2252 1.30613,0.045 2.02675,1.0359 0.76567,1.0359 0.76567,2.4321 0,0.99086 -0.40535,1.62141 -0.45039,0.67558 -1.44125,1.17101 -1.26109,0.67558 -2.61226,0.90078 -1.35117,0.22519 -2.56722,0.22519 -3.06265,-0.045 -4.86421,-1.03589 -1.80156,-0.99086 -2.56722,-2.79242 -0.8107,-1.80156 -0.8107,-4.2787 v -5.99018 h -0.58551 q -1.48629,0 -2.56722,-0.8107 -1.0359,-0.85574 -1.08094,-2.747381 0.045,-1.216052 0.54047,-1.981714 0.54047,-0.765663 1.39621,-1.125974 0.85574,-0.315273 1.75652,-0.315273 h 0.54047 v -3.06265 q 0.045,-1.531325 0.99085,-2.567221 0.99086,-0.990857 2.70234,-1.035896 1.75652,0.04504 2.70234,1.080935 0.94582,0.990857 0.94582,2.522182 v 3.06265 h 2.29699 q 0.94581,0 1.75651,0.315273 0.85575,0.360311 1.39621,1.125974 0.54047,0.765662 0.54047,1.981714 -0.045,1.891641 -1.08093,2.747381 -1.0359,0.8107 -2.56723,0.8107 z m 10.31782,-9.323068 v 0 q -1.80156,-0.04504 -2.92753,-1.171013 -1.17102,-1.171013 -1.17102,-2.927533 0,-1.711481 1.17102,-2.837455 1.12597,-1.171013 2.92753,-1.216052 1.71148,0.04504 2.88249,1.216052 1.12598,1.125974 1.17102,2.837455 -0.045,1.75652 -1.17102,2.927533 -1.17101,1.125974 -2.88249,1.171013 z m -3.64816,19.636988 V 98.821878 q 0,-1.441246 0.99086,-2.522182 0.94582,-1.080935 2.6573,-1.125974 1.21605,0.04504 2.07179,0.540468 0.8107,0.540468 1.21605,1.396208 0.40535,0.810701 0.40535,1.71148 v 14.277352 q 0,0.85574 -0.40535,1.66644 -0.40535,0.85574 -1.21605,1.35117 -0.85574,0.54047 -2.07179,0.58551 -1.71148,-0.045 -2.6573,-1.12598 -0.99086,-1.03589 -0.99086,-2.47714 z m 19.73097,-3.06265 v 0 q 1.53132,0 2.56722,-1.08093 1.0359,-1.08094 1.08093,-2.79242 0,-1.89164 -1.08093,-2.88249 -1.0359,-1.0359 -2.6573,-1.0359 -1.57636,0 -2.61226,1.0359 -0.99086,0.99085 -1.0359,2.88249 0.045,1.89164 1.08094,2.88249 0.99086,0.99086 2.6573,0.99086 z m 11.30478,-3.87335 v 0 q 0,2.97257 -1.39621,5.40468 -1.44125,2.4321 -4.00847,3.82831 -2.56722,1.44124 -6.03522,1.48628 -1.93667,0 -3.87335,-0.5855 -1.93667,-0.54047 -3.51304,-1.80156 -1.57636,-1.26109 -2.52218,-3.33289 -0.94582,-2.02675 -0.99086,-4.99932 0.045,-3.28784 1.53133,-5.81003 1.48628,-2.47714 4.00846,-3.873348 2.56723,-1.396208 5.81003,-1.441247 3.06265,0.04504 5.53979,1.351169 2.47715,1.351169 3.96343,3.828316 1.44125,2.47714 1.48629,5.94514 z m 12.79496,6.936 v -9.09787 q 0,-1.0359 -0.54047,-1.53133 -0.54046,-0.49542 -1.44124,-0.49542 -0.99086,0 -1.57637,0.49542 -0.54046,0.49543 -0.54046,1.53133 v 9.09787 q 0,0.85574 -0.45039,1.66644 -0.40535,0.85574 -1.26109,1.35117 -0.81071,0.54047 -1.93668,0.58551 -1.89164,-0.045 -2.79242,-1.08094 -0.90077,-1.08093 -0.90077,-2.52218 v -9.09787 q 0,-3.06265 1.26109,-5.044365 1.21605,-1.981714 3.42296,-2.927532 2.25195,-0.990858 5.22452,-0.990858 4.41382,0.04504 6.62073,2.251949 2.25194,2.206909 2.25194,6.350496 v 9.45818 q 0,0.85574 -0.40535,1.66644 -0.40535,0.85574 -1.21605,1.35117 -0.8107,0.54047 -2.02675,0.58551 -1.71148,-0.045 -2.70234,-1.08094 -0.99086,-1.08093 -0.99086,-2.52218 z"
         id="ReconstructionText"
         aria-label="Reconstruction" /></g></g><metadata
     id="metadata83"><rdf:RDF><cc:Work
         rdf:about=""><dc:title>Flora Editor Reconstruction</dc:title><dc:creator><cc:Agent><dc:title>0KepOnline</dc:title></cc:Agent></dc:creator></cc:Work></rdf:RDF></metadata></svg>
