<?xml version="1.0" encoding="UTF-8" standalone="no"?>
<!-- Created with Inkscape (http://www.inkscape.org/) -->

<svg
   width="32"
   height="31.999998"
   viewBox="0 0 8.4666662 8.466667"
   version="1.1"
   id="svg1"
   xml:space="preserve"
   xmlns:xlink="http://www.w3.org/1999/xlink"
   xmlns="http://www.w3.org/2000/svg"
   xmlns:svg="http://www.w3.org/2000/svg"
   xmlns:rdf="http://www.w3.org/1999/02/22-rdf-syntax-ns#"
   xmlns:cc="http://creativecommons.org/ns#"
   xmlns:dc="http://purl.org/dc/elements/1.1/"><title
     id="title83">Flora Editor Reconstruction (Leaf Verb Icon)</title><defs
     id="defs1"><linearGradient
       id="linearGradient20"><stop
         style="stop-color:#e4f5ff;stop-opacity:1;"
         offset="0"
         id="stop20" /><stop
         style="stop-color:#91abc8;stop-opacity:1;"
         offset="1"
         id="stop27" /></linearGradient><linearGradient
       xlink:href="#linearGradient20"
       id="linearGradient27"
       x1="44.753891"
       y1="142.7095"
       x2="44.753891"
       y2="20.092484"
       gradientUnits="userSpaceOnUse" /><filter
       style="color-interpolation-filters:sRGB"
       id="filter40"
       x="-0.215934"
       y="-0.2500682"
       width="1.431868"
       height="1.3851342"><feFlood
         result="flood"
         in="SourceGraphic"
         flood-opacity="1"
         flood-color="rgb(0,0,0)"
         id="feFlood39" /><feGaussianBlur
         result="blur"
         in="SourceGraphic"
         stdDeviation="3"
         id="feGaussianBlur39" /><feOffset
         result="offset"
         in="blur"
         dx="0.000000"
         dy="0.000000"
         id="feOffset39" /><feComposite
         result="comp1"
         operator="in"
         in="flood"
         in2="offset"
         id="feComposite39" /><feComposite
         result="comp2"
         operator="over"
         in="SourceGraphic"
         in2="comp1"
         id="feComposite40" /></filter></defs><g
     id="FloraEditorReconstruction"
     style="display:inline;fill:#1a1a1a"
     transform="translate(24.645001,-12.781691)"><g
       id="Leaf"
       transform="matrix(0.04634317,0,0,0.04634316,-22.485705,13.594122)"><path
         id="LeafPath"
         style="display:inline;fill-opacity:1;paint-order:markers stroke fill"
         d="M 44.753888,15.452504 29.084467,50.138211 5.0478794,66.111892 17.674694,88.627175 -16.554621,80.260009 -2.1022444,110.38181 c 0,0 1.89734246,3.34687 0.6085211,8.82356 -1.435155,6.09852 -5.9330815,12.62681 -5.9330815,12.62681 l 26.9270618,5.4767 22.058895,-3.65114 v 13.69174 h 3.194736 3.194735 v -13.69174 l 22.058893,3.65114 26.927062,-5.4767 c 0,0 -4.497927,-6.52829 -5.933081,-12.62681 -1.288822,-5.47669 0.608521,-8.82356 0.608521,-8.82356 L 106.0624,80.260009 71.83308,88.627175 84.459893,66.111892 60.423308,50.138211 Z" /><use
         x="0"
         y="0"
         xlink:href="#LeafPath"
         id="LeafStroke"
         style="display:inline;fill:none;stroke:#0e2331;stroke-width:21.2296;stroke-linecap:butt;stroke-linejoin:miter;stroke-dasharray:none;stroke-opacity:1;paint-order:normal;filter:url(#filter40)" /><use
         x="0"
         y="0"
         xlink:href="#LeafPath"
         id="LeafGradient"
         style="display:inline;fill:url(#linearGradient27)" /><g
         id="LeafBevel"
         style="display:inline"><path
           id="LeafBevelDarker"
           style="baseline-shift:baseline;display:inline;overflow:visible;opacity:1;mix-blend-mode:multiply;vector-effect:none;fill:#5066a4;fill-opacity:0.650602;paint-order:markers stroke fill;enable-background:accumulate;stop-color:#000000;stop-opacity:1"
           d="m 47.050366,20.541941 -2.276347,5.246708 c 4.013488,8.883606 8.027403,17.766935 12.040609,26.650571 l 0.251665,0.555005 0.505912,0.337963 c 7.091998,4.711589 14.183786,9.424376 21.275704,14.136606 -4.362035,7.77791 -8.724173,15.555803 -13.086023,23.333976 l -2.3828,4.247803 4.73046,-1.156002 c 10.090252,-2.466658 20.181013,-4.932298 30.271538,-7.398515 -3.173203,6.612604 -6.346627,13.224433 -9.519832,19.837034 -1.530428,2.69877 -2.566813,5.80857 -2.546615,9.09867 v 0.0155 l 0.0021,0.0176 c 0.105532,4.91999 1.970971,9.31322 4.130498,13.36921 l -20.519162,4.17391 c -7.916544,-1.30997 -15.833583,-2.62041 -23.750489,-3.93 l -0.384472,-0.0641 h -2.078427 l -0.384472,0.0641 c -7.915619,1.30956 -15.831116,2.62004 -23.746355,3.93 -6.823553,-1.38744 -13.6470307,-2.77458 -20.47058567,-4.16202 0.006097,-0.0117 0.0124944,-0.0234 0.0186035,-0.0351 l -6.21977553,2.55798 -0.2852539,0.47904 2.9217855,0.59376 c 7.8574202,1.59765 15.7153001,3.19533 23.5727221,4.79299 l 0.382405,0.078 0.38499,-0.0646 c 7.223396,-1.19545 14.446822,-2.39064 21.669996,-3.58583 v 13.68754 h 6.390307 V 133.6622 c 7.224478,1.19523 14.449441,2.39036 21.67413,3.58583 l 0.384473,0.0646 26.875363,-5.46685 -1.507919,-2.55695 c -2.60293,-4.41389 -4.714798,-9.11003 -4.824512,-13.89062 -0.01291,-2.38744 0.761402,-4.81684 2.017965,-7.01921 l 0.03721,-0.0646 0.03307,-0.0682 c 3.83154,-7.9845 7.662328,-15.968556 11.493868,-23.95306 l 1.9358,-4.035413 -4.34599,1.062468 c -9.962151,2.435087 -19.924271,4.869845 -29.886543,7.30498 3.888013,-6.932879 7.775775,-13.865781 11.663888,-20.79873 l 0.961181,-1.711007 -1.635042,-1.087789 C 75.357882,60.065554 67.890235,55.102501 60.421643,50.140652 55.964452,40.274259 51.507688,30.408154 47.050366,20.541941 Z" /><path
           id="LeafBevelLighter"
           style="baseline-shift:baseline;display:inline;overflow:visible;opacity:1;mix-blend-mode:screen;vector-effect:none;fill:#ffffff;fill-opacity:0.650602;paint-order:markers stroke fill;enable-background:accumulate;stop-color:#000000;stop-opacity:1"
           d="M 44.753865,15.461114 29.236466,49.804755 c -0.669628,0.832509 -2.175112,1.509367 -3.900537,2.826184 L 5.0467274,66.115388 6.0079091,67.826395 C 9.896022,74.759343 13.783784,81.692246 17.671797,88.625125 7.7108223,86.19006 -2.2502632,83.755064 -12.211134,81.320145 l -4.339787,-1.060401 1.928048,4.031279 c 4.317532,9.025401 8.693997,18.005357 12.9041218,27.041247 1.33084325,3.89095 0.4678397,8.42081 -1.3337688,12.4566 l -0.00827,0.0176 -0.00775,0.016 c -0.8001594,1.87682 -1.7317868,3.70211 -2.7791586,5.46272 l -1.2402344,2.08359 6.21977555,-2.55798 c 0.57451847,-1.10119 1.20193384,-2.17378 1.69033614,-3.31866 2.07167831,-4.65003 3.30374441,-10.25898 1.44538981,-15.6037 l -0.03514,-0.10129 -0.044958,-0.0977 c -3.622356,-7.7782 -7.3615064,-15.482997 -11.0665084,-23.195461 10.0924474,2.466972 20.1850139,4.933227 30.2772229,7.400582 l 4.730977,1.156002 -2.383317,-4.247803 C 19.383994,83.024598 15.022374,75.246704 10.660338,67.468794 l 17.087847,-11.357447 0.06408,-0.05064 c 1.110238,-0.870547 3.261198,-1.605621 4.892725,-3.77548 l 0.14056,-0.187586 11.908317,-26.35343 c 0.0067,0.01485 0.01344,0.02959 0.02015,0.04444 l 2.276347,-5.246708 c -0.122173,-0.270428 -0.24473,-0.540892 -0.366903,-0.81132 z" /></g></g></g><metadata
     id="metadata83"><rdf:RDF><cc:Work
         rdf:about=""><dc:title>Flora Editor Reconstruction (Leaf Verb Icon)</dc:title><dc:creator><cc:Agent><dc:title>0KepOnline</dc:title></cc:Agent></dc:creator></cc:Work></rdf:RDF></metadata></svg>
